<svg xmlns="http://www.w3.org/2000/svg" xml:space="preserve" width="2000" height="1500" data-id="lg_JvB7PBzmc4rhe5JXFe" data-version="1"><path stroke="transparent" d="M0 0h2000v1500H0z"/><g data-padding="20"><g stroke="null" stroke-width="3.475"><path fill="#c6d2ff" d="M1250.358 1257.978H755.272v-206.277l139.244-543.215h-123.78V242.022h479.622v170.206l-149.565 579.32h149.565Zm-465.861-204.574v173.647h438.339v-204.575h-159.851l159.85-611.985V272.984H798.224v204.54h134.101Zm422.875 158.183H798.223v-153.005L951.228 462.06H811.984V288.448h395.388v116.9l-163.326 632.592h163.326Z" font-family="Alumni Sans Collegiate One" font-size="494.691"/><path fill="#06fabc" d="M722.746 829.752v11.12h-77.042V830.69l58.242-74.782h-53.064v-11.12h68.527v9.903l-58.24 75.06Zm111.13 11.12h-13.83l-9.834-27.21H770.11l-9.73 27.21h-13.97l36.314-96.085h15.464ZM794.4 767.445l-4.135-12.406-.834 2.78-4.934 15.081-10.738 30.129h32.978Zm133.823 73.427h-13.587v-44.376h-37.183v44.376h-13.587v-96.085h13.587v40.31h37.183v-40.31h13.587Zm44.376-84.964v-11.12h58.624v11.12h-22.518v73.844h22.518v11.12H972.6v-11.12h22.519v-73.844Zm171.666 35.966q0 23.56-10.946 36.28-10.911 12.718-31.31 12.718h-26.34v-96.085h22.135q23.457 0 34.96 11.711t11.501 35.376Zm-13.691 0q0-18.8-7.819-27.383-7.853-8.583-24.846-8.583h-8.618v73.844h11.537q15.081 0 22.414-9.487 7.332-9.452 7.332-28.391Zm116.726-47.087v61.16q0 19.044-8.097 27.697-8.132 8.653-26.063 8.653-17.375 0-25.194-8.375-7.784-8.375-7.784-26.688v-62.447h13.588v60.605q0 14.525 4.17 20.19t15.15 5.664q11.468 0 16.09-5.838t4.622-20.954v-59.667Zm106.996 96.085h-61.473v-96.085h13.622v84.965h47.85Z" font-family="Cousine" font-size="41.974"/></g><path fill="transparent" stroke="transparent" stroke-width="3.853" d="M607.02 187.5h785.96v1125H607.02z"/></g></svg>